HIERARCHY
ROOT Hips
{
	OFFSET 0.00000 0.00000 0.00000
	CHANNELS 6 Xposition Yposition Zposition Zrotation Yrotation Xrotation 
	JOINT LHipJoint
	{
		OFFSET 0 0 0
		CHANNELS 3 Zrotation Yrotation Xrotation
		JOINT LeftUpLeg
		{
			OFFSET 1.57358 -1.76629 0.73362
			CHANNELS 3 Zrotation Yrotation Xrotation
			JOINT LeftLeg
			{
				OFFSET 2.40600 -6.61045 0.00000
				CHANNELS 3 Zrotation Yrotation Xrotation
				JOINT LeftFoot
				{
					OFFSET 2.66168 -7.31291 0.00000
					CHANNELS 3 Zrotation Yrotation Xrotation
					JOINT LeftToeBase
					{
						OFFSET 0.20870 -0.57341 2.12506
						CHANNELS 3 Zrotation Yrotation Xrotation
						End Site
						{
							OFFSET 0.00000 -0.00000 1.10557
						}
					}
				}
			}
		}
	}
	JOINT RHipJoint
	{
		OFFSET 0 0 0
		CHANNELS 3 Zrotation Yrotation Xrotation
		JOINT RightUpLeg
		{
			OFFSET -1.49299 -1.76629 0.73362
			CHANNELS 3 Zrotation Yrotation Xrotation
			JOINT RightLeg
			{
				OFFSET -2.43663 -6.69460 0.00000
				CHANNELS 3 Zrotation Yrotation Xrotation
				JOINT RightFoot
				{
					OFFSET -2.62959 -7.22474 0.00000
					CHANNELS 3 Zrotation Yrotation Xrotation
					JOINT RightToeBase
					{
						OFFSET -0.25784 -0.70841 2.21862
						CHANNELS 3 Zrotation Yrotation Xrotation
						End Site
						{
							OFFSET -0.00000 -0.00000 1.16452
						}
					}
				}
			}
		}
	}
	JOINT LowerBack
	{
		OFFSET 0 0 0
		CHANNELS 3 Zrotation Yrotation Xrotation
		JOINT Spine
		{
			OFFSET -0.00034 2.12399 -0.25450
			CHANNELS 3 Zrotation Yrotation Xrotation
			JOINT Spine1
			{
				OFFSET 0.05594 2.14379 -0.03318
				CHANNELS 3 Zrotation Yrotation Xrotation
				JOINT Neck
				{
					OFFSET 0 0 0
					CHANNELS 3 Zrotation Yrotation Xrotation
					JOINT Neck1
					{
						OFFSET -0.09835 1.62725 0.24211
						CHANNELS 3 Zrotation Yrotation Xrotation
						JOINT Head
						{
							OFFSET 0.10849 1.66041 -0.22648
							CHANNELS 3 Zrotation Yrotation Xrotation
							End Site
							{
								OFFSET 0.04385 1.68267 -0.10541
							}
						}
					}
				}
				JOINT LeftShoulder
				{
					OFFSET 0 0 0
					CHANNELS 3 Zrotation Yrotation Xrotation
					JOINT LeftArm
					{
						OFFSET 3.29108 0.79398 -0.68179
						CHANNELS 3 Zrotation Yrotation Xrotation
						JOINT LeftForeArm
						{
							OFFSET 5.15310 -0.00000 -0.00000
							CHANNELS 3 Zrotation Yrotation Xrotation
							JOINT LeftHand
							{
								OFFSET 3.75138 -0.00000 -0.00000
								CHANNELS 3 Zrotation Yrotation Xrotation
								JOINT LeftFingerBase
								{
									OFFSET 0 0 0
									CHANNELS 3 Zrotation Yrotation Xrotation
									JOINT LeftHandIndex1
									{
										OFFSET 0.52917 -0.00000 0.00000
										CHANNELS 3 Zrotation Yrotation Xrotation
										End Site
										{
											OFFSET 0.42663 -0.00000 0.00000
										}
									}
								}
								JOINT LThumb
								{
									OFFSET 0 0 0
									CHANNELS 3 Zrotation Yrotation Xrotation
									End Site
									{
										OFFSET 0.43315 -0.00000 0.43315
									}
								}
							}
						}
					}
				}
				JOINT RightShoulder
				{
					OFFSET 0 0 0
					CHANNELS 3 Zrotation Yrotation Xrotation
					JOINT RightArm
					{
						OFFSET -3.07414 1.06285 -0.44338
						CHANNELS 3 Zrotation Yrotation Xrotation
						JOINT RightForeArm
						{
							OFFSET -5.29613 -0.00000 0.00000
							CHANNELS 3 Zrotation Yrotation Xrotation
							JOINT RightHand
							{
								OFFSET -3.76144 -0.00000 -0.00000
								CHANNELS 3 Zrotation Yrotation Xrotation
								JOINT RightFingerBase
								{
									OFFSET 0 0 0
									CHANNELS 3 Zrotation Yrotation Xrotation
									JOINT RightHandIndex1
									{
										OFFSET -0.74732 -0.00000 0.00000
										CHANNELS 3 Zrotation Yrotation Xrotation
										End Site
										{
											OFFSET -0.60251 -0.00000 0.00000
										}
									}
								}
								JOINT RThumb
								{
									OFFSET 0 0 0
									CHANNELS 3 Zrotation Yrotation Xrotation
									End Site
									{
										OFFSET -0.61171 -0.00000 0.61171
									}
								}
							}
						}
					}
				}
			}
		}
	}
}
MOTION
Frames: 11
Frame Time: 0.0833333
0.00 0.00 0.00 0 0 0 0 0 0 -21 0 0 0 0 0 0 0 0 0 0 0 0 0 0 21 0 0 0 0 0 0 0 0 0 0 0 0 0 0 0 0 0 0 0 0 0 0 -16 0 0 21 0 0 11 0 0 0 -8 0 0 0 0 0 0 0 0 0 0 0 0 0 0 0 0 0 0 0 0 8 0 0 0 0 0 0 0 0 0 0 0 0 0 0 0 0 0
0.00 0.00 0.00 3.4438 -9.6103 -0.5656 0.0000 0.0000 0.0000 -27.1608 0.3322 -3.4136 4.5269 12.8304 38.7368 0.5023 0.7201 -13.6682 1.7409 -8.3040 -23.6414 0.0000 0.0000 0.0000 18.9377 7.7633 -28.4228 -11.5071 -18.1744 64.4177 -0.3410 0.1901 -10.9659 -0.5733 4.8490 -13.4783 -3.4526 0.1834 9.6617 1.2681 -0.0727 0.3536 3.2830 0.0593 -5.0502 -9.4205 -4.6239 -23.0743 11.2455 -5.3996 12.9071 4.6231 -1.8835 8.3627 -0.0000 -0.0000 0.0000 -85.8611 18.7931 31.6880 117.3950 -56.9651 -83.4831 -0.0000 0.0000 -18.2469 14.8997 13.7041 3.6068 -7.1250 0.0000 -0.0000 -11.4471 43.8404 0.3322 -0.0000 -0.0000 0.0000 82.9012 -19.6312 50.9733 -129.8639 53.0502 -93.7171 0.0000 -0.0000 -18.3906 -8.6168 14.1138 -2.1162 7.1250 -0.0000 -0.0000 12.8241 -15.9393 9.0414
0.00 0.00 0.00 4.0330 -10.6410 -0.0525 0.0000 0.0000 0.0000 -27.2174 2.2731 0.9515 3.7321 11.7951 35.0110 0.0008 -1.7229 -1.2831 2.2564 -9.3809 -26.9942 0.0000 0.0000 0.0000 20.8251 7.9293 -28.8612 -7.0152 -15.3447 48.9319 -0.3661 1.1309 -11.0888 -0.6741 5.2502 -14.6235 -3.7189 -0.1744 7.8792 1.4159 -0.5117 -0.1122 3.6286 -0.1542 -4.4960 -9.2734 -4.4395 -23.0633 10.9394 -5.2345 14.1054 4.5373 -1.8198 8.7330 -0.0000 0.0000 0.0000 -86.0501 19.8566 31.4005 117.9650 -56.8283 -83.9605 -0.0000 0.0000 -18.4929 14.1756 13.0753 3.2705 -7.1250 0.0000 -0.0000 -11.9324 43.1308 0.5589 -0.0000 0.0000 0.0000 82.6797 -22.4505 49.8696 -130.1317 52.9423 -93.9310 0.0000 -0.0000 -16.1383 -6.9152 16.4539 -1.9675 7.1250 -0.0000 -0.0000 13.8697 -13.7483 10.4945
0.00 0.00 0.00 5.0236 -10.8139 0.6914 0.0000 0.0000 0.0000 -27.3637 1.2408 5.4061 2.8822 10.5018 30.6176 0.4644 -1.8734 13.6911 1.7207 -8.2584 -23.5018 0.0000 0.0000 0.0000 22.1210 6.9127 -28.1843 -3.2621 -11.1076 32.6438 -0.1050 1.4961 -5.7812 -1.1464 6.7987 -19.1204 -4.0278 -0.5561 5.9555 1.3594 -0.9883 -1.1200 3.7732 -0.3680 -4.4157 -9.8479 -4.2839 -21.9221 10.8059 -5.0408 15.7474 4.6487 -1.8008 9.0854 -0.0000 -0.0000 0.0000 -85.8922 21.6277 31.8297 119.2386 -56.5094 -85.0246 -0.0000 0.0000 -19.9191 12.7430 12.4307 2.7870 -7.1250 0.0000 -0.0000 -13.0319 42.3416 0.8709 -0.0000 -0.0000 0.0000 82.8895 -26.0351 48.2776 -130.9474 52.6062 -94.5805 0.0000 -0.0000 -13.9461 -7.1959 17.9593 -2.2294 7.1250 -0.0000 -0.0000 13.6411 -12.2604 10.7497
0.00 0.00 0.00 7.3491 -9.8821 -0.1280 0.0000 0.0000 0.0000 -27.8487 -4.2047 7.9214 4.1129 12.3091 36.8343 0.1858 -12.0409 19.4100 0.0000 0.0433 0.1190 0.0000 0.0000 0.0000 24.1992 2.6061 -24.7908 -0.7547 -5.5485 15.4800 -0.3389 -6.2616 10.5969 -0.2603 3.2822 -9.0655 -4.7625 -0.6467 5.9892 0.5823 -1.1993 -1.0749 3.3964 -0.4659 -4.3708 -9.8801 -4.8252 -23.4530 9.7741 -5.4720 16.6571 4.2336 -2.0716 9.6829 -0.0000 0.0000 0.0000 -85.6241 20.9604 33.3431 122.4663 -55.6161 -87.7028 -0.0000 0.0000 -19.2662 13.6906 11.6344 2.8125 -7.1250 0.0000 -0.0000 -12.0090 41.6382 1.0121 -0.0000 0.0000 0.0000 84.8442 -28.0300 43.3439 -134.2275 51.1414 -97.1613 0.0000 -0.0000 -13.6578 -5.6112 18.0524 -1.7439 7.1250 -0.0000 -0.0000 14.6610 -12.2748 11.6044
0.00 0.00 0.00 6.9774 -9.8648 -3.7481 0.0000 0.0000 0.0000 -21.5580 -1.2022 0.8041 8.4187 16.4187 54.0572 -0.0306 -6.4138 8.3065 0.8426 -5.8552 -16.3649 0.0000 0.0000 0.0000 25.7059 2.5952 -23.3209 -3.1467 -10.9289 32.0404 0.0237 -2.7504 -0.6530 -0.4938 -4.5054 12.5032 -3.3944 0.2736 11.0981 0.4322 -0.0511 -0.1358 2.3790 0.0899 -6.3773 -10.3935 -5.5152 -21.7559 9.5686 -6.2425 14.7875 4.1019 -2.5334 8.8322 0.0000 -0.0000 0.0000 -86.9991 20.0054 33.3896 122.5415 -55.5938 -87.7649 -0.0000 0.0000 -19.9009 13.3662 11.0427 2.6059 -7.1250 0.0000 -0.0000 -12.1542 41.0159 1.2144 0.0000 -0.0000 0.0000 85.5009 -26.0934 40.5004 -135.2717 50.6347 -97.9715 0.0000 -0.0000 -13.9224 -6.6423 17.8556 -2.0450 7.1250 -0.0000 -0.0000 14.0020 -12.3993 11.0106
0.00 0.00 0.00 2.2129 -7.7763 -3.5960 0.0000 0.0000 0.0000 -7.6613 -1.0386 -17.2526 12.6855 18.6656 68.1457 0.1269 -3.0863 -6.3665 0.6264 -5.0645 -14.0927 0.0000 0.0000 0.0000 30.8699 0.2208 -20.3472 -6.0074 -14.4355 45.0114 -0.7274 -3.3981 -17.6951 -0.1668 -2.6310 7.2531 0.6081 0.1767 12.3765 1.9952 0.4451 0.7096 1.6800 0.2272 -6.2132 -10.1964 -5.7125 -22.4312 8.8692 -6.3617 14.8410 3.7999 -2.6333 8.9440 -0.0000 0.0000 0.0000 -89.5040 19.7559 33.2681 116.8955 -57.0820 -83.0640 -0.0000 0.0000 -20.8868 15.2323 11.6959 3.1595 -7.1250 0.0000 -0.0000 -10.6745 41.8462 0.8411 -0.0000 0.0000 0.0000 81.2754 -15.7112 42.9289 -132.1163 52.1055 -95.5061 0.0000 -0.0000 -16.5177 -9.4183 15.1483 -2.4820 7.1250 -0.0000 -0.0000 12.2519 -14.8702 8.9067
0.00 0.00 0.00 1.6593 -8.6386 -2.1543 0.0000 0.0000 0.0000 1.8358 -18.4580 -21.5164 2.0392 8.9473 25.6305 0.0098 2.1702 2.1796 0.6263 -5.0641 -14.0914 0.0000 0.0000 0.0000 26.1973 -2.5572 -14.0232 -10.3563 -17.6054 60.6727 0.1599 7.3698 0.4774 -0.1601 -2.5782 7.1066 1.6829 2.6609 12.7890 -0.0263 3.7640 0.9684 -1.6397 1.7979 -6.0335 -11.2000 -7.2427 -20.2504 11.1429 -8.7679 13.6084 4.4024 -3.6540 8.5695 0.0000 -0.0000 0.0000 -85.5456 25.5600 36.6221 125.1018 -54.7896 -89.8672 -0.0000 0.0000 -22.0408 16.9286 15.7073 4.7105 -7.1250 0.0000 -0.0000 -10.1316 46.1099 -0.2804 0.0000 -0.0000 0.0000 80.6989 -12.9928 45.1382 -140.6736 47.6657 -102.0603 0.0000 -0.0000 -15.7923 -7.5377 18.6546 -2.4236 7.1250 -0.0000 -0.0000 13.4051 -11.5564 10.7539
0.00 0.00 0.00 2.5093 -18.1961 -3.3790 0.0000 0.0000 0.0000 2.6623 -13.4353 -16.3069 2.4204 9.6917 27.9840 -0.0322 -7.2130 -4.2672 3.4222 -11.3490 -33.4660 0.0000 0.0000 0.0000 18.4229 1.8737 -14.8994 -15.3594 -19.4757 76.3170 0.2862 11.2701 10.7178 -0.0892 -1.9259 5.3008 1.6924 3.5909 12.0554 -0.9279 4.9059 2.7025 -2.6428 2.4074 -3.6801 -11.2698 -7.4109 -19.5504 11.1346 -9.0744 13.8201 4.3770 -3.8259 8.5601 0.0000 -0.0000 0.0000 -85.2265 27.6997 36.6797 133.7578 -51.3627 -96.7950 -0.0000 0.0000 -25.0208 13.5438 10.5941 2.5358 -7.1250 0.0000 -0.0000 -11.8999 40.5823 1.3175 0.0000 -0.0000 0.0000 81.8718 -13.1891 47.1395 -133.9485 51.2733 -96.9438 0.0000 -0.0000 -15.4598 -7.4009 18.6827 -2.3826 7.1250 -0.0000 -0.0000 13.4926 -11.5389 10.8333
0.00 0.00 0.00 8.2685 -22.3052 -4.7629 0.0000 0.0000 0.0000 -3.1922 -6.2385 -15.8517 3.9972 12.1567 36.2887 0.4854 -11.4044 -13.7853 2.2753 -9.4174 -27.1099 0.0000 0.0000 0.0000 9.2906 -1.6472 -28.3737 -20.3322 -19.9974 90.9713 -0.0889 4.1846 -5.6590 -0.0090 0.6117 -1.6810 -5.0144 2.0908 15.2570 -1.5623 1.8067 2.4200 0.8132 0.9588 -6.0810 -11.7838 -8.0791 -20.4925 11.2243 -9.8032 14.2499 4.3606 -4.1515 8.9882 0.0000 -0.0000 0.0000 -86.1686 23.1630 43.6288 134.9674 -50.7844 -97.7360 -0.0000 0.0000 -24.8605 11.9344 10.0353 2.1093 -7.1250 0.0000 -0.0000 -13.1562 39.8898 1.6910 0.0000 -0.0000 0.0000 85.6686 -16.1234 46.0439 -126.2017 54.4171 -90.7638 0.0000 -0.0000 -18.3530 -10.0763 18.1970 -3.1763 7.1250 -0.0000 -0.0000 11.7688 -11.8071 9.3152
0.00 0.00 0.00 14.2332 -41.7091 -5.5302 0.0000 0.0000 0.0000 -9.9830 1.7503 3.2330 2.6179 10.0492 29.1361 0.4069 1.4823 -12.6801 3.5229 -11.4969 -33.9745 0.0000 0.0000 0.0000 17.3222 7.7263 -49.8764 -15.7914 -19.5699 77.6096 -0.8651 4.1643 -16.6679 -0.1743 2.6893 -7.4150 -8.3749 -1.7353 14.4945 -1.6445 -3.8610 0.3329 3.7453 -1.6230 -7.3582 -14.0680 -8.4146 -17.3016 13.3034 -10.3505 12.9935 5.4238 -4.4706 8.3386 -0.0000 0.0000 0.0000 -88.6551 16.2575 43.9381 137.5683 -49.4464 -99.7321 -0.0000 0.0000 -29.8218 8.6884 10.5345 1.6004 -7.1250 0.0000 -0.0000 -16.0398 40.1112 1.9921 -0.0000 0.0000 0.0000 81.8618 -25.0794 55.9127 -132.7956 51.8038 -96.0410 0.0000 -0.0000 -16.1679 -5.9644 20.9390 -2.1383 7.1250 -0.0000 -0.0000 14.3631 -9.4486 12.2108
